<svg xmlns="http://www.w3.org/2000/svg" width="160" height="160" viewBox="0 0 160 160" fill="none">
  <defs>
    <linearGradient id="g" x1="0" x2="1" y1="0" y2="1">
      <stop offset="0" stop-color="#60A5FA" />
      <stop offset="1" stop-color="#7C3AED" />
    </linearGradient>
  </defs>
  <rect width="160" height="160" rx="28" fill="url(#g)" />
  <!-- stylized check/bolt mark combining task + AI motif -->
  <g transform="translate(36 36) scale(0.65)" fill="white" fill-rule="evenodd">
    <path d="M46.9 8.5c-1.1-1.4-3.1-1.7-4.5-.6L14.6 30.6c-1.4 1.1-1.7 3.1-.6 4.5 1.1 1.4 3.1 1.7 4.5.6l24.2-21.6 9.6 11.3c.8.9 2.1 1.1 3.1.3.9-.8 1.1-2.1.3-3.1L46.9 8.5z"/>
    <path d="M86 16c-7.2-2.2-24.4-4.8-45 8.3-24.1 15.1-35 40.8-26 60.9 9.4 21.1 36.6 29.6 61.6 18 22.1-10.4 35.8-33.5 35.8-60.1 0-10.4-2.5-20.6-6.4-27.9-1.3-2.5-4.4-3.6-6.9-2.2z" opacity="0.06"/>
  </g>
</svg>
